<svg width="44" height="43" viewBox="0 0 44 43" fill="none" xmlns="http://www.w3.org/2000/svg">
<g clip-path="url(#clip0_2060_1683)">
<path fill-rule="evenodd" clip-rule="evenodd" d="M21.8572 0.000976562C9.78729 0.000976562 0.000488281 9.78633 0.000488281 21.8577C0.000488281 31.5142 6.26346 39.707 14.9471 42.597C16.0398 42.7997 16.4412 42.123 16.4412 41.5459C16.4412 41.0248 16.4209 39.3028 16.411 37.4763C10.3305 38.7987 9.04778 34.8979 9.04778 34.8979C8.05317 32.3718 6.62077 31.6998 6.62077 31.6998C4.63735 30.3432 6.77017 30.3708 6.77017 30.3708C8.96497 30.5254 10.1203 32.6235 10.1203 32.6235C12.0701 35.9649 15.2337 34.9989 16.4811 34.4404C16.6774 33.028 17.2435 32.0632 17.8686 31.5177C13.014 30.9658 7.911 29.0912 7.911 20.7163C7.911 18.3304 8.7646 16.3803 10.1625 14.85C9.93583 14.2993 9.18763 12.0761 10.3748 9.06564C10.3748 9.06564 12.21 8.47785 16.3859 11.3059C18.1298 10.8218 19.9994 10.5791 21.8569 10.5704C23.7144 10.5791 25.5857 10.8218 27.3323 11.3059C31.5041 8.47814 33.337 9.06535 33.337 9.06535C34.5265 12.0755 33.7786 14.2987 33.5513 14.8491C34.9527 16.3797 35.8005 18.3295 35.8005 20.7154C35.8005 29.1109 30.6876 30.9588 25.8209 31.5C26.6047 32.1787 27.3033 33.5086 27.3033 35.5479C27.3033 38.4724 27.2784 40.8264 27.2784 41.5459C27.2784 42.1279 27.6714 42.809 28.7792 42.5947C37.4599 39.7015 43.7142 31.5116 43.7142 21.858C43.7139 9.78633 33.9283 0.000976562 21.8572 0.000976562Z" fill="#1B1817"/>
<path d="M8.28101 31.3821C8.23265 31.491 8.06181 31.524 7.90632 31.4487C7.74707 31.3775 7.65876 31.2292 7.71001 31.1203C7.7572 31.0089 7.92804 30.9779 8.08643 31.0523C8.2451 31.1238 8.33544 31.2732 8.28101 31.3821ZM9.16386 32.3701C9.05962 32.4668 8.85548 32.4222 8.71794 32.2693C8.57433 32.1167 8.54798 31.9126 8.65366 31.8147C8.7608 31.7183 8.95885 31.7634 9.1016 31.916C9.24493 32.0701 9.27302 32.2722 9.16386 32.3701ZM10.0256 33.6296C9.89151 33.7231 9.67231 33.636 9.5368 33.4414C9.40274 33.2468 9.40274 33.0137 9.5397 32.9202C9.67579 32.827 9.89151 32.9115 10.029 33.1038C10.1622 33.3015 10.1622 33.5344 10.0256 33.6296ZM11.209 34.846C11.0891 34.9781 10.834 34.9425 10.6472 34.7621C10.4561 34.586 10.4029 34.3358 10.5227 34.2038C10.6443 34.0715 10.9009 34.1082 11.0891 34.2878C11.2788 34.4632 11.3364 34.7152 11.209 34.846ZM12.8377 35.5517C12.7844 35.7225 12.5395 35.8007 12.2916 35.7274C12.0441 35.6527 11.8822 35.4524 11.9326 35.2795C11.9835 35.1072 12.2308 35.0261 12.4798 35.104C12.7268 35.1784 12.8893 35.3777 12.8377 35.5517ZM14.6257 35.682C14.6315 35.8624 14.4219 36.0121 14.1624 36.015C13.9007 36.0208 13.689 35.8748 13.6861 35.6976C13.6861 35.5152 13.8917 35.3675 14.1523 35.3632C14.4129 35.3574 14.6257 35.503 14.6257 35.6817M16.2907 35.3997C16.3216 35.5751 16.1412 35.7558 15.883 35.8039C15.6293 35.8508 15.3945 35.7419 15.3623 35.5679C15.3305 35.3875 15.5144 35.2071 15.7677 35.1605C16.0263 35.1153 16.2576 35.221 16.2907 35.3997Z" fill="#1B1817"/>
</g>
<defs>
<clipPath id="clip0_2060_1683">
<rect width="43.714" height="42.6339" fill="white"/>
</clipPath>
</defs>
</svg>
