<svg width="44" height="44" viewBox="0 0 44 44" fill="none" xmlns="http://www.w3.org/2000/svg">
<g clip-path="url(#clip0_2044_1675)">
<path d="M40.3744 20.9006C39.3942 19.2274 37.9955 17.838 36.3158 16.8688C35.0335 16.1236 33.7075 15.6503 32.2102 15.4455V10.0844C32.9363 9.78351 33.5554 9.27173 33.9875 8.61521C34.4196 7.9587 34.6448 7.18764 34.634 6.40177C34.6366 5.87106 34.5344 5.34506 34.3331 4.85399C34.1319 4.36292 33.8356 3.91645 33.4612 3.54024C33.0869 3.16404 32.6419 2.86551 32.1519 2.6618C31.6618 2.4581 31.1363 2.35324 30.6056 2.35325C29.5306 2.35324 28.4995 2.77935 27.7381 3.53821C26.9767 4.29707 26.5472 5.3268 26.5436 6.40177C26.5436 8.04669 27.4165 9.44991 28.917 10.0844V15.4153C27.674 15.5951 26.468 15.9737 25.3452 16.5365L10.9941 5.66995C11.0948 5.29061 11.1821 4.89784 11.1821 4.48493C11.1821 2.00748 9.17461 0 6.69715 0C4.2197 0 2.21558 2.00748 2.21558 4.48493C2.21558 6.96239 4.22305 8.96986 6.70051 8.96986C7.54647 8.96986 8.32865 8.72145 9.0034 8.31525L9.94335 9.02693L22.8174 18.309C22.1359 18.9334 21.5015 19.6451 20.9946 20.444C19.9673 22.0722 19.3396 23.8614 19.3396 25.8152V26.2181C19.3441 27.543 19.5828 28.8568 20.0445 30.0987C20.4339 31.1595 21.0046 32.1263 21.7129 32.9992L17.4361 37.286C16.1706 36.8161 14.7506 37.1283 13.7938 38.085C13.1426 38.7329 12.7766 39.6158 12.78 40.5356C12.7834 41.4554 13.1426 42.3316 13.7972 42.9862C14.4518 43.6408 15.328 44.0034 16.2478 44.0034C17.1676 44.0034 18.0505 43.6408 18.6984 42.9862C19.3463 42.3316 19.7155 41.4554 19.7122 40.5356C19.7119 40.1825 19.6576 39.8316 19.551 39.4949L23.9688 35.0771C24.5731 35.4968 25.2277 35.8492 25.9327 36.1514C27.3816 36.7869 28.9462 37.116 30.5284 37.1182H30.8305C32.6836 37.1182 34.4326 36.6818 36.0741 35.7922C37.7615 34.8874 39.1792 33.5519 40.1831 31.9216C41.2137 30.2766 41.7776 28.4538 41.7776 26.4497V26.349C41.7776 24.3784 41.3211 22.5623 40.3677 20.8972L40.3744 20.9006ZM34.9797 30.1726C33.7813 31.5053 32.4016 32.3278 30.8439 32.3278H30.5485C29.6589 32.3278 28.7861 32.0827 27.9368 31.6329C27.0055 31.1486 26.2165 30.4301 25.6473 29.5482C25.0296 28.6754 24.6939 27.722 24.6939 26.7115V26.4094C24.6939 25.4157 24.8853 24.4724 25.3653 23.5828C25.879 22.5757 26.5739 21.854 27.497 21.2531C28.4202 20.6522 29.3702 20.3635 30.4512 20.3635H30.5519C31.5254 20.3635 32.4553 20.5548 33.3281 21.0013C34.2123 21.4663 34.9633 22.1492 35.5102 22.9853C36.0515 23.8237 36.3863 24.7786 36.487 25.7716L36.5105 26.3993C36.5105 27.7656 35.9868 29.0312 34.9428 30.1793L34.9797 30.1726Z" fill="#F8761F"/>
</g>
<defs>
<clipPath id="clip0_2044_1675">
<rect width="44" height="44" fill="white"/>
</clipPath>
</defs>
</svg>
