<svg width="44" height="44" viewBox="0 0 44 44" fill="none" xmlns="http://www.w3.org/2000/svg">
<g clip-path="url(#clip0_2060_1693)">
<path d="M0.538996 27.0701C0.441316 26.6526 0.938516 26.3899 1.24168 26.693L17.307 42.7583C17.6106 43.0619 17.3474 43.5591 16.9299 43.461C8.82288 41.5589 2.44068 35.1771 0.538996 27.0701ZM0.000875986 20.6312C-0.00275266 20.6928 0.00674642 20.7544 0.0287441 20.8121C0.0507419 20.8697 0.0847362 20.922 0.128476 20.9656L23.034 43.8724C23.1224 43.9604 23.2443 44.0075 23.3684 44C24.4112 43.9344 25.4342 43.7976 26.4321 43.5921C26.7687 43.523 26.8853 43.1099 26.6424 42.867L1.13344 17.3571C0.890556 17.1147 0.477396 17.2313 0.408316 17.5679C0.200963 18.5782 0.064815 19.6018 0.000875986 20.6312ZM1.8524 13.0702C1.8169 13.1507 1.80665 13.24 1.82299 13.3264C1.83933 13.4128 1.88149 13.4923 1.94392 13.5542L30.4454 42.0556C30.5725 42.1832 30.7648 42.2206 30.9294 42.1472C31.7122 41.7984 32.474 41.404 33.2108 40.9662C33.2672 40.9323 33.3152 40.8859 33.3509 40.8306C33.3867 40.7753 33.4093 40.7125 33.4171 40.6471C33.4249 40.5817 33.4176 40.5154 33.3958 40.4533C33.3739 40.3911 33.3382 40.3348 33.2913 40.2886L3.71184 10.7078C3.66563 10.6608 3.60927 10.625 3.54708 10.6032C3.48489 10.5813 3.41852 10.574 3.35306 10.5817C3.2876 10.5895 3.22479 10.6122 3.16945 10.648C3.11411 10.6838 3.0677 10.7318 3.0338 10.7884C2.59595 11.5251 2.20162 12.2869 1.85284 13.0698L1.8524 13.0702ZM5.56952 7.95256C5.49073 7.87458 5.44478 7.76941 5.4411 7.65862C5.43742 7.54783 5.47628 7.43984 5.54972 7.3568C9.5832 2.8424 15.4488 0 21.9789 0C34.1405 0 44 9.85908 44 22.0211C44 28.5507 41.1576 34.4168 36.6432 38.4498C36.5602 38.5233 36.4522 38.5621 36.3414 38.5585C36.2306 38.5548 36.1254 38.5088 36.0474 38.43L5.56996 7.95256H5.56952Z" fill="#5E6AD2"/>
</g>
<defs>
<clipPath id="clip0_2060_1693">
<rect width="44" height="44" fill="white"/>
</clipPath>
</defs>
</svg>
