<svg width="44" height="44" viewBox="0 0 44 44" fill="none" xmlns="http://www.w3.org/2000/svg">
<g clip-path="url(#clip0_2060_1687)">
<path d="M9.19403 27.5464C9.19403 30.079 7.14711 32.1259 4.61447 32.1259C2.08184 32.1259 0.0349121 30.079 0.0349121 27.5464C0.0349121 25.0137 2.08184 22.9668 4.61447 22.9668H9.19403V27.5464ZM11.4838 27.5464C11.4838 25.0137 13.5307 22.9668 16.0634 22.9668C18.596 22.9668 20.6429 25.0137 20.6429 27.5464V38.9953C20.6429 41.5279 18.596 43.5748 16.0634 43.5748C13.5307 43.5748 11.4838 41.5279 11.4838 38.9953V27.5464Z" fill="#E01E5A"/>
<path d="M16.0631 9.15912C13.5305 9.15912 11.4836 7.11219 11.4836 4.57956C11.4836 2.04692 13.5305 0 16.0631 0C18.5958 0 20.6427 2.04692 20.6427 4.57956V9.15912H16.0631ZM16.0631 11.4836C18.5958 11.4836 20.6427 13.5305 20.6427 16.0631C20.6427 18.5958 18.5958 20.6427 16.0631 20.6427H4.57956C2.04692 20.6427 0 18.5958 0 16.0631C0 13.5305 2.04692 11.4836 4.57956 11.4836H16.0631Z" fill="#36C5F0"/>
<path d="M34.4163 16.0631C34.4163 13.5305 36.4632 11.4836 38.9959 11.4836C41.5285 11.4836 43.5754 13.5305 43.5754 16.0631C43.5754 18.5958 41.5285 20.6427 38.9959 20.6427H34.4163V16.0631ZM32.1265 16.0631C32.1265 18.5958 30.0796 20.6427 27.547 20.6427C25.0143 20.6427 22.9674 18.5958 22.9674 16.0631V4.57956C22.9674 2.04692 25.0143 0 27.547 0C30.0796 0 32.1265 2.04692 32.1265 4.57956V16.0631Z" fill="#2EB67D"/>
<path d="M27.547 34.4157C30.0796 34.4157 32.1265 36.4626 32.1265 38.9953C32.1265 41.5279 30.0796 43.5748 27.547 43.5748C25.0143 43.5748 22.9674 41.5279 22.9674 38.9953V34.4157H27.547ZM27.547 32.1259C25.0143 32.1259 22.9674 30.079 22.9674 27.5464C22.9674 25.0137 25.0143 22.9668 27.547 22.9668H39.0306C41.5632 22.9668 43.6101 25.0137 43.6101 27.5464C43.6101 30.079 41.5632 32.1259 39.0306 32.1259H27.547Z" fill="#ECB22E"/>
</g>
<defs>
<clipPath id="clip0_2060_1687">
<rect width="43.714" height="43.714" fill="white"/>
</clipPath>
</defs>
</svg>
