<svg width="441" height="381" viewBox="0 0 441 381" fill="none" xmlns="http://www.w3.org/2000/svg">
<path d="M328.65 2.47963L437.198 190.49L328.65 378.498L111.556 378.499L3.00843 190.489L111.556 2.48101L328.65 2.47963Z" fill="white" stroke="#EF91F7" stroke-width="4.96084"/>
<path d="M54.5689 100.767L173.349 104.631L238.616 1.14302L327.415 1.14302L378.144 88.9498L266.502 275.527L48.1197 269.287L3.96829 190.647L54.5689 100.767Z" fill="url(#paint0_linear_2060_1713)"/>
<path d="M233.159 378.542L390.617 105.817L439.418 190.653L329.287 380.412L233.159 378.542Z" fill="#6C1573"/>
<path d="M357.661 260.362C357.664 259.617 357.676 258.905 357.696 258.223C357.708 257.511 357.73 256.804 357.762 256.102C357.846 253.326 357.851 251.17 357.778 249.635C357.696 248.069 357.393 246.654 356.869 245.392C356.336 244.099 355.461 243.1 354.241 242.396C353.582 242.015 352.904 241.85 352.208 241.902C351.523 241.933 350.862 242.178 350.225 242.636C349.587 243.094 349.032 243.733 348.559 244.552C347.809 245.852 347.626 247.092 348.01 248.273C348.405 249.434 349.233 250.379 350.492 251.106L348.276 254.943C346.777 254.078 345.611 253.005 344.778 251.724C343.925 250.432 343.505 248.99 343.517 247.399C343.51 245.795 343.991 244.154 344.961 242.475C345.884 240.876 346.992 239.65 348.284 238.797C349.556 237.932 350.906 237.486 352.335 237.458C353.744 237.418 355.118 237.785 356.457 238.558C358.196 239.562 359.44 240.893 360.188 242.551C360.917 244.198 361.316 245.907 361.385 247.68C361.454 249.452 361.397 251.698 361.213 254.417C361.198 254.675 361.182 254.932 361.167 255.19C361.143 255.416 361.123 255.658 361.108 255.915C361.099 256.07 361.127 256.206 361.192 256.324C361.237 256.43 361.337 256.487 361.492 256.497C361.729 256.501 361.849 256.317 361.851 255.944L361.873 255.837C361.903 255.322 361.973 254.856 362.081 254.438C362.2 254.001 362.404 253.532 362.692 253.032L367.678 244.397L371.156 246.405L361.739 262.716L357.661 260.362ZM356.172 223.056C357.234 221.217 358.604 219.929 360.282 219.192C361.952 218.424 363.796 218.183 365.816 218.47C367.828 218.725 369.873 219.453 371.952 220.653C374.031 221.853 375.693 223.266 376.94 224.892C378.178 226.487 378.892 228.205 379.082 230.046C379.262 231.857 378.822 233.681 377.76 235.52C376.699 237.359 375.333 238.663 373.663 239.431C371.985 240.168 370.14 240.409 368.129 240.154C366.109 239.867 364.059 239.124 361.981 237.923C359.902 236.723 358.243 235.326 357.005 233.731C355.758 232.106 355.044 230.387 354.864 228.577C354.674 226.736 355.11 224.895 356.172 223.056ZM374.162 233.443C375.062 231.884 375.099 230.319 374.273 228.75C373.427 227.168 371.915 225.749 369.736 224.491C367.557 223.233 365.582 222.639 363.809 222.708C362.017 222.766 360.67 223.574 359.77 225.134C358.87 226.693 358.843 228.263 359.689 229.844C360.515 231.414 362.018 232.828 364.196 234.086C366.375 235.344 368.361 235.944 370.153 235.886C371.926 235.816 373.262 235.002 374.162 233.443ZM380.094 221.506C380.098 220.762 380.109 220.049 380.13 219.368C380.141 218.655 380.163 217.948 380.195 217.247C380.279 214.47 380.284 212.314 380.211 210.779C380.129 209.213 379.826 207.799 379.302 206.537C378.77 205.243 377.894 204.245 376.674 203.541C376.015 203.16 375.337 202.995 374.641 203.046C373.957 203.078 373.296 203.322 372.658 203.78C372.021 204.238 371.465 204.877 370.992 205.697C370.242 206.996 370.059 208.236 370.443 209.418C370.839 210.579 371.666 211.523 372.925 212.25L370.71 216.088C369.21 215.222 368.044 214.149 367.211 212.869C366.358 211.577 365.938 210.135 365.951 208.543C365.943 206.94 366.425 205.299 367.394 203.619C368.317 202.02 369.425 200.794 370.717 199.941C371.989 199.076 373.34 198.63 374.768 198.602C376.177 198.563 377.551 198.929 378.89 199.703C380.629 200.707 381.873 202.038 382.621 203.696C383.35 205.342 383.749 207.052 383.818 208.824C383.888 210.597 383.83 212.843 383.647 215.561C383.631 215.819 383.616 216.077 383.6 216.334C383.576 216.56 383.557 216.802 383.541 217.06C383.532 217.214 383.56 217.35 383.625 217.468C383.67 217.574 383.77 217.632 383.925 217.641C384.163 217.645 384.282 217.461 384.284 217.089L384.306 216.982C384.337 216.466 384.406 216 384.514 215.582C384.633 215.145 384.837 214.676 385.126 214.177L390.111 205.541L393.589 207.549L384.172 223.861L380.094 221.506ZM386.34 199.54C382.422 197.278 379.766 194.839 378.372 192.222C376.97 189.573 377.111 186.789 378.796 183.871C379.558 182.552 380.51 181.502 381.653 180.723C382.787 179.912 383.985 179.431 385.245 179.279C386.505 179.127 387.688 179.317 388.794 179.849L386.613 183.627C385.861 183.406 385.133 183.465 384.43 183.806C383.719 184.115 383.046 184.819 382.411 185.918C381.857 186.878 381.581 187.771 381.583 188.598C381.585 189.426 381.764 190.155 382.119 190.787C382.486 191.398 382.961 191.913 383.546 192.33C383.915 192.57 384.217 192.877 384.453 193.253C384.51 193.34 384.561 193.436 384.606 193.542C384.643 193.616 384.68 193.691 384.717 193.766C384.816 194.009 384.904 194.18 384.981 194.278C385.049 194.344 385.148 194.334 385.277 194.249C385.363 194.192 385.399 194.107 385.386 193.992C385.383 193.857 385.355 193.721 385.302 193.584C385.293 193.552 385.289 193.536 385.289 193.536C385.3 193.516 385.296 193.501 385.276 193.489C384.98 192.572 384.867 191.613 384.937 190.615C384.999 189.584 385.376 188.469 386.068 187.27C386.957 185.731 388.013 184.595 389.235 183.862C390.47 183.108 391.773 182.768 393.144 182.84C394.526 182.892 395.897 183.31 397.256 184.095C398.696 184.926 399.804 186.006 400.583 187.335C401.373 188.644 401.756 190.104 401.731 191.716C401.687 193.316 401.198 194.926 400.263 196.545C399.282 198.244 398.104 199.522 396.729 200.381C395.333 201.228 393.76 201.599 392.008 201.494C390.268 201.369 388.379 200.717 386.34 199.54ZM390.265 196.689C391.024 197.128 391.792 197.344 392.568 197.339C393.344 197.334 394.076 197.104 394.766 196.649C395.466 196.174 396.076 195.487 396.596 194.587C397.115 193.688 397.399 192.826 397.449 192.002C397.51 191.157 397.349 190.398 396.965 189.723C396.582 189.049 396.01 188.492 395.25 188.054C393.931 187.292 392.702 187.089 391.564 187.445C390.438 187.78 389.476 188.638 388.68 190.017C388.161 190.917 387.89 191.8 387.869 192.667C387.86 193.515 388.067 194.287 388.49 194.985C388.914 195.682 389.505 196.251 390.265 196.689Z" fill="#FDF9F4"/>
<path d="M266.755 186.686C266.195 192.541 263.473 197.976 259.121 201.931C254.769 205.887 249.098 208.078 243.217 208.077C237.379 208.081 231.748 205.915 227.416 202.001C223.084 198.087 220.361 192.703 219.775 186.894L220.881 184.681C225.108 181.107 228.077 176.814 230.3 171.499L234.744 161.882C236.163 158.666 239.823 156.227 243.217 156.227C246.707 156.227 250.915 158.676 252.23 161.882L256.4 171.499C258.441 176.396 261.598 180.748 265.62 184.209L266.755 186.686Z" fill="black"/>
<path d="M260.05 158.946L263.994 168.233L264.012 168.28C266.018 173.064 269.392 177.148 273.711 180.022C278.029 182.895 283.1 184.429 288.288 184.432C294.19 184.437 300.035 183.279 305.489 181.024C310.943 178.768 315.899 175.461 320.074 171.289C324.249 167.117 327.562 162.164 329.821 156.712C332.081 151.259 333.244 145.415 333.244 139.513C333.244 133.595 332.075 127.736 329.803 122.271C327.532 116.806 324.203 111.844 320.008 107.67C315.812 103.496 310.834 100.192 305.358 97.9482C299.882 95.7042 294.016 94.5644 288.098 94.5943H198.526C192.624 94.5894 186.778 95.7475 181.324 98.0027C175.87 100.258 170.914 103.566 166.739 107.737C162.564 111.909 159.251 116.862 156.992 122.315C154.732 127.767 153.569 133.611 153.569 139.513C153.569 145.415 154.732 151.259 156.992 156.712C159.251 162.164 162.564 167.117 166.739 171.289C170.914 175.461 175.87 178.768 181.324 181.024C186.778 183.279 192.624 184.437 198.526 184.432C203.713 184.429 208.784 182.895 213.102 180.022C217.421 177.148 220.795 173.064 222.801 168.28L226.81 158.842L226.839 158.786C228.242 155.554 230.556 152.8 233.498 150.861C236.44 148.921 239.883 147.88 243.407 147.863C250.669 147.863 257.242 152.194 260.05 158.946Z" fill="#C5D0FD"/>
<path d="M159.574 139.512C159.584 129.139 163.711 119.193 171.048 111.86C178.384 104.526 188.332 100.405 198.705 100.4H288.288C298.663 100.402 308.613 104.523 315.952 111.856C323.291 119.19 327.419 129.137 327.429 139.512C327.419 149.887 323.291 159.834 315.952 167.168C308.613 174.501 298.663 178.622 288.288 178.625C279.994 178.625 272.637 173.717 269.431 166.085L265.469 156.761C263.663 152.426 260.612 148.723 256.702 146.123C252.792 143.522 248.198 142.139 243.501 142.151C238.808 142.152 234.219 143.539 230.311 146.138C226.403 148.738 223.35 152.433 221.534 156.761L217.562 166.085C216.016 169.81 213.399 172.99 210.041 175.223C206.683 177.456 202.738 178.64 198.705 178.625C188.332 178.62 178.384 174.498 171.048 167.164C163.711 159.831 159.584 149.886 159.574 139.512ZM288.288 85.1367H198.705C184.262 85.1291 170.404 90.8486 160.171 101.041C149.937 111.234 144.163 125.069 144.112 139.512C144.112 146.656 145.52 153.73 148.255 160.329C150.99 166.929 154.999 172.925 160.052 177.975C165.105 183.024 171.104 187.029 177.706 189.759C184.307 192.49 191.382 193.893 198.526 193.888C205.58 193.892 212.477 191.81 218.35 187.902C224.223 183.995 228.808 178.437 231.529 171.929L235.482 162.596C236.147 161.041 237.251 159.714 238.659 158.777C240.066 157.84 241.716 157.333 243.407 157.319C245.104 157.309 246.766 157.807 248.178 158.749C249.59 159.691 250.688 161.034 251.331 162.605L255.284 171.929C258.005 178.437 262.59 183.995 268.463 187.902C274.336 191.81 281.234 193.892 288.288 193.888C295.432 193.893 302.506 192.49 309.108 189.759C315.709 187.029 321.708 183.024 326.761 177.975C331.815 172.925 335.823 166.929 338.558 160.329C341.293 153.73 342.701 146.656 342.701 139.512C342.701 132.368 341.293 125.294 338.558 118.695C335.823 112.095 331.815 106.099 326.761 101.05C321.708 95.9998 315.709 91.9953 309.108 89.265C302.506 86.5346 295.432 85.1318 288.288 85.1367ZM106.286 245.899V94.5933L111.014 89.865H129.928L134.656 94.5933V246.116L134.741 247.535C134.836 248.83 135.025 250.788 135.422 253.171C136.381 259.111 138.206 264.878 140.84 270.287C143.838 276.292 148.122 281.862 154.269 285.957C160.331 290.004 169.05 293.182 181.939 293.182C194.828 293.182 203.547 290.004 209.609 285.957C215.756 281.862 220.039 276.292 223.037 270.287C225.671 264.878 227.497 259.111 228.456 253.171C228.841 250.766 229.094 248.341 229.212 245.908L229.222 245.842C229.229 242.08 230.731 238.475 233.397 235.82C236.062 233.165 239.673 231.678 243.435 231.686C247.197 231.693 250.802 233.195 253.457 235.86C256.112 238.526 257.599 242.137 257.592 245.899V246.305L257.573 247.062C257.547 247.68 257.503 248.509 257.44 249.549C257.289 251.611 257.005 254.457 256.438 257.833C255.014 266.564 252.309 275.037 248.409 282.978C243.728 292.34 236.484 302.137 225.335 309.57C214.129 317.041 199.793 321.552 181.939 321.552C164.085 321.552 149.758 317.05 138.533 309.57C127.403 302.137 120.149 292.34 115.459 282.978C111.563 275.037 108.86 266.564 107.44 257.833C106.856 254.267 106.477 250.671 106.305 247.062L106.286 246.305V245.899Z" fill="#9B25A5"/>
<path d="M129.927 56.7666C131.181 56.7666 132.384 57.2648 133.271 58.1515C134.158 59.0382 134.656 60.2409 134.656 61.4949V94.593H106.286V61.4949C106.286 60.2409 106.784 59.0382 107.671 58.1515C108.558 57.2648 109.76 56.7666 111.014 56.7666H129.927ZM266.887 226.985H219.926C214.555 226.985 210.308 231.25 210.308 236.442C210.308 241.634 214.649 245.898 219.926 245.898H266.887C269.413 245.909 271.841 244.921 273.642 243.15C275.443 241.379 276.472 238.968 276.505 236.442C276.505 231.25 272.164 226.985 266.887 226.985Z" fill="black"/>
<path d="M57.4121 287.384L384.051 286.888L330.205 380.151H109.944L57.4121 287.384Z" fill="#EF91F7"/>
<path d="M142.694 317.656C145.686 317.656 148.132 318.226 150.032 319.366C151.955 320.482 153.356 321.989 154.235 323.889C155.114 325.765 155.553 327.867 155.553 330.194C155.553 332.521 155.102 334.634 154.199 336.534C153.297 338.41 151.884 339.918 149.961 341.057C148.037 342.173 145.615 342.731 142.694 342.731H133.327V317.656H142.694ZM143.229 338.457C144.843 338.457 146.209 338.077 147.325 337.317C148.465 336.534 149.308 335.513 149.854 334.254C150.424 332.996 150.709 331.642 150.709 330.194C150.709 328.745 150.424 327.392 149.854 326.133C149.308 324.875 148.465 323.865 147.325 323.105C146.209 322.322 144.843 321.93 143.229 321.93H138.171V338.457H143.229ZM174.007 331.333L175.396 334.468H161.683V331.333H174.007ZM157.266 333.328C157.266 331.381 157.646 329.683 158.406 328.235C159.166 326.762 160.246 325.634 161.647 324.851C163.072 324.043 164.734 323.64 166.634 323.64C168.177 323.64 169.614 323.972 170.944 324.637C172.297 325.278 173.39 326.311 174.221 327.736C175.076 329.137 175.503 330.918 175.503 333.079C175.503 333.459 175.467 333.922 175.396 334.468L170.944 331.333C170.849 330.146 170.445 329.184 169.733 328.448C169.02 327.712 168.035 327.344 166.776 327.344C164.9 327.344 163.583 327.926 162.823 329.089C162.063 330.253 161.683 331.761 161.683 333.613C161.683 334.729 161.885 335.691 162.288 336.498C162.692 337.306 163.274 337.935 164.034 338.386C164.794 338.813 165.696 339.027 166.741 339.027C167.762 339.027 168.581 338.778 169.198 338.279C169.816 337.78 170.267 337.08 170.552 336.178H175.182C174.897 337.531 174.399 338.718 173.686 339.739C172.998 340.761 172.06 341.568 170.873 342.162C169.709 342.731 168.32 343.016 166.705 343.016C164.734 343.016 163.036 342.601 161.612 341.77C160.187 340.939 159.106 339.799 158.37 338.35C157.634 336.878 157.266 335.204 157.266 333.328ZM194.077 331.333L195.466 334.468H181.753V331.333H194.077ZM177.336 333.328C177.336 331.381 177.716 329.683 178.476 328.235C179.236 326.762 180.317 325.634 181.718 324.851C183.142 324.043 184.805 323.64 186.704 323.64C188.248 323.64 189.684 323.972 191.014 324.637C192.368 325.278 193.46 326.311 194.291 327.736C195.146 329.137 195.573 330.918 195.573 333.079C195.573 333.459 195.538 333.922 195.466 334.468L191.014 331.333C190.919 330.146 190.515 329.184 189.803 328.448C189.091 327.712 188.105 327.344 186.847 327.344C184.971 327.344 183.653 327.926 182.893 329.089C182.133 330.253 181.753 331.761 181.753 333.613C181.753 334.729 181.955 335.691 182.359 336.498C182.762 337.306 183.344 337.935 184.104 338.386C184.864 338.813 185.766 339.027 186.811 339.027C187.832 339.027 188.651 338.778 189.269 338.279C189.886 337.78 190.337 337.08 190.622 336.178H195.253C194.968 337.531 194.469 338.718 193.757 339.739C193.068 340.761 192.13 341.568 190.943 342.162C189.779 342.731 188.39 343.016 186.775 343.016C184.805 343.016 183.107 342.601 181.682 341.77C180.257 340.939 179.177 339.799 178.441 338.35C177.705 336.878 177.336 335.204 177.336 333.328ZM202.41 324.637C202.41 324.993 202.363 325.326 202.268 325.634C202.196 325.943 202.078 326.264 201.912 326.596C201.888 326.62 201.876 326.644 201.876 326.667C201.876 326.691 201.864 326.715 201.84 326.739C201.745 326.952 201.686 327.13 201.662 327.273C201.662 327.392 201.733 327.487 201.876 327.558C202.018 327.629 202.125 327.629 202.196 327.558C202.291 327.463 202.386 327.344 202.481 327.202C202.481 327.178 202.481 327.166 202.481 327.166C202.505 327.142 202.517 327.13 202.517 327.13C203.134 326.062 203.93 325.219 204.903 324.601C205.901 323.96 207.088 323.64 208.465 323.64C210.056 323.64 211.469 324.067 212.704 324.922C213.963 325.777 214.936 326.94 215.625 328.413C216.313 329.885 216.658 331.523 216.658 333.328C216.658 335.133 216.313 336.771 215.625 338.243C214.936 339.716 213.963 340.879 212.704 341.734C211.469 342.589 210.056 343.016 208.465 343.016C207.112 343.016 205.925 342.708 204.903 342.09C203.906 341.449 203.111 340.582 202.517 339.49L202.481 339.419C202.434 339.3 202.363 339.217 202.268 339.17C202.196 339.098 202.101 339.086 201.983 339.134C201.817 339.205 201.733 339.3 201.733 339.419C201.733 339.538 201.781 339.692 201.876 339.882L201.912 339.989C202.244 340.654 202.41 341.295 202.41 341.912V349.57H197.851V323.925H202.41V324.637ZM207.397 338.885C208.418 338.885 209.285 338.635 209.997 338.137C210.709 337.638 211.232 336.973 211.564 336.142C211.92 335.287 212.098 334.349 212.098 333.328C212.098 332.307 211.92 331.381 211.564 330.55C211.232 329.695 210.709 329.018 209.997 328.52C209.285 328.021 208.418 327.772 207.397 327.772C206.423 327.772 205.557 328.021 204.797 328.52C204.037 329.018 203.443 329.695 203.016 330.55C202.612 331.405 202.41 332.331 202.41 333.328C202.41 334.325 202.612 335.251 203.016 336.106C203.443 336.961 204.037 337.638 204.797 338.137C205.557 338.635 206.423 338.885 207.397 338.885ZM239.707 317.656C242.699 317.656 245.145 318.226 247.044 319.366C248.968 320.482 250.369 321.989 251.247 323.889C252.126 325.765 252.565 327.867 252.565 330.194C252.565 332.521 252.114 334.634 251.212 336.534C250.309 338.41 248.897 339.918 246.973 341.057C245.05 342.173 242.628 342.731 239.707 342.731H230.339V317.656H239.707ZM240.241 338.457C241.856 338.457 243.221 338.077 244.337 337.317C245.477 336.534 246.32 335.513 246.866 334.254C247.436 332.996 247.721 331.642 247.721 330.194C247.721 328.745 247.436 327.392 246.866 326.133C246.32 324.875 245.477 323.865 244.337 323.105C243.221 322.322 241.856 321.93 240.241 321.93H235.183V338.457H240.241ZM255.418 323.925H259.978V342.731H255.418V323.925ZM255.418 317.086H259.978V321.645H255.418V317.086ZM255.418 338.742H259.978V342.731H255.418V338.742ZM255.418 323.925H257.841V327.914H255.418V323.925ZM266.262 323.925L270.429 337.674C270.453 337.745 270.465 337.816 270.465 337.887C270.488 337.959 270.512 338.03 270.536 338.101C270.631 338.6 270.678 339.146 270.678 339.739C270.678 340.096 270.821 340.274 271.106 340.274C271.391 340.274 271.533 340.096 271.533 339.739C271.533 339.146 271.581 338.612 271.676 338.137C271.699 338.042 271.711 337.959 271.711 337.887C271.735 337.816 271.759 337.745 271.783 337.674L275.95 323.925H280.794L274.383 342.731H267.829L261.417 323.925H266.262ZM297.56 331.333L298.949 334.468H285.236V331.333H297.56ZM280.819 333.328C280.819 331.381 281.199 329.683 281.959 328.235C282.719 326.762 283.799 325.634 285.2 324.851C286.625 324.043 288.287 323.64 290.187 323.64C291.73 323.64 293.167 323.972 294.496 324.637C295.85 325.278 296.942 326.311 297.773 327.736C298.628 329.137 299.056 330.918 299.056 333.079C299.056 333.459 299.02 333.922 298.949 334.468L294.496 331.333C294.401 330.146 293.998 329.184 293.285 328.448C292.573 327.712 291.588 327.344 290.329 327.344C288.453 327.344 287.135 327.926 286.375 329.089C285.616 330.253 285.236 331.761 285.236 333.613C285.236 334.729 285.437 335.691 285.841 336.498C286.245 337.306 286.827 337.935 287.586 338.386C288.346 338.813 289.249 339.027 290.293 339.027C291.315 339.027 292.134 338.778 292.751 338.279C293.369 337.78 293.82 337.08 294.105 336.178H298.735C298.45 337.531 297.951 338.718 297.239 339.739C296.55 340.761 295.613 341.568 294.425 342.162C293.262 342.731 291.873 343.016 290.258 343.016C288.287 343.016 286.589 342.601 285.164 341.77C283.74 340.939 282.659 339.799 281.923 338.35C281.187 336.878 280.819 335.204 280.819 333.328ZM305.536 327.95C305.631 327.973 305.714 327.95 305.786 327.878C305.857 327.783 305.916 327.7 305.964 327.629C305.964 327.605 305.964 327.593 305.964 327.593C306.391 326.62 306.831 325.86 307.282 325.314C307.733 324.768 308.386 324.352 309.241 324.067C310.096 323.782 311.259 323.64 312.731 323.64V328.27C310.974 328.151 309.597 328.294 308.6 328.698C307.626 329.078 306.925 329.742 306.498 330.692C306.094 331.642 305.893 332.936 305.893 334.575V342.731H301.333V323.925H305.893V324.958C305.893 325.694 305.714 326.418 305.358 327.13C305.358 327.154 305.346 327.166 305.323 327.166C305.323 327.166 305.323 327.178 305.323 327.202C305.251 327.415 305.228 327.593 305.251 327.736C305.275 327.855 305.37 327.926 305.536 327.95ZM301.476 338.742H305.75V342.731H301.476V338.742ZM301.476 323.925H303.755V327.914H301.476V323.925Z" fill="#2F2F30"/>
<defs>
<linearGradient id="paint0_linear_2060_1713" x1="133.257" y1="36.7802" x2="264.106" y2="276.833" gradientUnits="userSpaceOnUse">
<stop stop-color="#EF91F7" stop-opacity="0.5"/>
<stop offset="1" stop-color="#EF91F7" stop-opacity="0.1"/>
</linearGradient>
</defs>
</svg>
