<svg width="441" height="405" viewBox="0 0 441 405" fill="none" xmlns="http://www.w3.org/2000/svg">
<path d="M328.65 25.7345L437.198 213.745L328.65 401.753L111.556 401.754L3.00843 213.744L111.556 25.7359L328.65 25.7345Z" fill="white" stroke="#91A9F7" stroke-width="4.96084"/>
<path d="M54.5689 124.022L173.349 127.886L238.616 24.3979L327.415 24.3979L378.144 112.205L266.502 298.782L48.1197 292.542L3.96829 213.901L54.5689 124.022Z" fill="url(#paint0_linear_2060_1726)"/>
<path d="M233.159 401.797L390.617 129.072L439.418 213.908L329.287 403.667L233.159 401.797Z" fill="#152B73"/>
<path d="M357.661 283.617C357.664 282.872 357.676 282.16 357.696 281.478C357.708 280.765 357.73 280.058 357.762 279.357C357.846 276.58 357.851 274.425 357.778 272.89C357.696 271.323 357.393 269.909 356.869 268.647C356.336 267.354 355.461 266.355 354.241 265.651C353.582 265.27 352.904 265.105 352.208 265.157C351.523 265.188 350.862 265.433 350.225 265.891C349.587 266.349 349.032 266.988 348.559 267.807C347.809 269.107 347.626 270.347 348.01 271.528C348.405 272.689 349.233 273.633 350.492 274.36L348.276 278.198C346.777 277.333 345.611 276.26 344.778 274.979C343.925 273.687 343.505 272.245 343.517 270.653C343.51 269.05 343.991 267.409 344.961 265.73C345.884 264.131 346.992 262.905 348.284 262.052C349.556 261.187 350.906 260.741 352.335 260.713C353.744 260.673 355.118 261.04 356.457 261.813C358.196 262.817 359.44 264.148 360.188 265.806C360.917 267.453 361.316 269.162 361.385 270.935C361.454 272.707 361.397 274.953 361.213 277.672C361.198 277.93 361.182 278.187 361.167 278.445C361.143 278.671 361.123 278.913 361.108 279.17C361.099 279.325 361.127 279.461 361.192 279.579C361.237 279.685 361.337 279.742 361.492 279.752C361.729 279.756 361.849 279.571 361.851 279.199L361.873 279.092C361.903 278.577 361.973 278.11 362.081 277.693C362.2 277.255 362.404 276.787 362.692 276.287L367.678 267.652L371.156 269.66L361.739 285.971L357.661 283.617ZM356.172 246.311C357.234 244.472 358.604 243.184 360.282 242.447C361.952 241.679 363.796 241.438 365.816 241.725C367.828 241.98 369.873 242.708 371.952 243.908C374.031 245.108 375.693 246.521 376.94 248.147C378.178 249.742 378.892 251.46 379.082 253.301C379.262 255.111 378.822 256.936 377.76 258.775C376.699 260.614 375.333 261.918 373.663 262.686C371.985 263.423 370.14 263.664 368.129 263.409C366.109 263.122 364.059 262.379 361.981 261.178C359.902 259.978 358.243 258.581 357.005 256.986C355.758 255.36 355.044 253.642 354.864 251.832C354.674 249.99 355.11 248.15 356.172 246.311ZM374.162 256.698C375.062 255.139 375.099 253.574 374.273 252.004C373.427 250.423 371.915 249.004 369.736 247.746C367.557 246.488 365.582 245.894 363.809 245.963C362.017 246.021 360.67 246.829 359.77 248.388C358.87 249.948 358.843 251.518 359.689 253.099C360.515 254.669 362.018 256.083 364.196 257.34C366.375 258.598 368.361 259.198 370.153 259.141C371.926 259.071 373.262 258.257 374.162 256.698ZM380.094 244.761C380.098 244.017 380.109 243.304 380.13 242.623C380.141 241.91 380.163 241.203 380.195 240.502C380.279 237.725 380.284 235.569 380.211 234.034C380.129 232.468 379.826 231.054 379.302 229.792C378.77 228.498 377.894 227.499 376.674 226.795C376.015 226.415 375.337 226.25 374.641 226.301C373.957 226.332 373.296 226.577 372.658 227.035C372.021 227.493 371.465 228.132 370.992 228.952C370.242 230.251 370.059 231.491 370.443 232.672C370.839 233.834 371.666 234.778 372.925 235.505L370.71 239.343C369.21 238.477 368.044 237.404 367.211 236.124C366.358 234.831 365.938 233.39 365.951 231.798C365.943 230.195 366.425 228.553 367.394 226.874C368.317 225.275 369.425 224.049 370.717 223.196C371.989 222.331 373.34 221.885 374.768 221.857C376.177 221.817 377.551 222.184 378.89 222.958C380.629 223.962 381.873 225.293 382.621 226.951C383.35 228.597 383.749 230.307 383.818 232.079C383.888 233.852 383.83 236.097 383.647 238.816C383.631 239.074 383.616 239.332 383.6 239.589C383.576 239.815 383.557 240.057 383.541 240.315C383.532 240.469 383.56 240.605 383.625 240.723C383.67 240.829 383.77 240.887 383.925 240.896C384.163 240.9 384.282 240.716 384.284 240.344L384.306 240.236C384.337 239.721 384.406 239.255 384.514 238.837C384.633 238.4 384.837 237.931 385.126 237.432L390.111 228.796L393.589 230.804L384.172 247.115L380.094 244.761ZM386.34 222.795C382.422 220.533 379.766 218.094 378.372 215.476C376.97 212.828 377.111 210.044 378.796 207.126C379.558 205.806 380.51 204.757 381.653 203.978C382.787 203.167 383.985 202.686 385.245 202.534C386.505 202.382 387.688 202.572 388.794 203.103L386.613 206.881C385.861 206.66 385.133 206.72 384.43 207.061C383.719 207.37 383.046 208.074 382.411 209.173C381.857 210.133 381.581 211.026 381.583 211.853C381.585 212.681 381.764 213.41 382.119 214.042C382.486 214.653 382.961 215.168 383.546 215.585C383.915 215.825 384.217 216.132 384.453 216.508C384.51 216.594 384.561 216.691 384.606 216.797C384.643 216.871 384.68 216.946 384.717 217.021C384.816 217.264 384.904 217.435 384.981 217.533C385.049 217.599 385.148 217.589 385.277 217.504C385.363 217.447 385.399 217.361 385.386 217.247C385.383 217.112 385.355 216.976 385.302 216.839C385.293 216.807 385.289 216.791 385.289 216.791C385.3 216.771 385.296 216.755 385.276 216.744C384.98 215.826 384.867 214.868 384.937 213.869C384.999 212.839 385.376 211.724 386.068 210.525C386.957 208.986 388.013 207.85 389.235 207.116C390.47 206.363 391.773 206.023 393.144 206.095C394.526 206.147 395.897 206.565 397.256 207.35C398.696 208.181 399.804 209.261 400.583 210.59C401.373 211.899 401.756 213.359 401.731 214.971C401.687 216.571 401.198 218.18 400.263 219.8C399.282 221.499 398.104 222.777 396.729 223.636C395.333 224.483 393.76 224.854 392.008 224.749C390.268 224.623 388.379 223.972 386.34 222.795ZM390.265 219.944C391.024 220.383 391.792 220.599 392.568 220.594C393.344 220.589 394.076 220.359 394.766 219.904C395.466 219.429 396.076 218.742 396.596 217.842C397.115 216.943 397.399 216.081 397.449 215.256C397.51 214.412 397.349 213.653 396.965 212.978C396.582 212.304 396.01 211.747 395.25 211.309C393.931 210.547 392.702 210.344 391.564 210.7C390.438 211.035 389.476 211.893 388.68 213.272C388.161 214.172 387.89 215.055 387.869 215.922C387.86 216.77 388.067 217.542 388.49 218.24C388.914 218.937 389.505 219.505 390.265 219.944Z" fill="#FDF9F4"/>
<g clip-path="url(#clip0_2060_1726)">
<path d="M176.079 145.42L182.378 136.027C183.604 134.085 186.284 133.583 188.226 134.809L284.886 198.924C289.454 201.926 290.653 208.05 287.651 212.618C284.65 217.186 278.525 218.384 273.957 215.383L177.297 151.268C175.333 149.957 174.768 147.384 176.079 145.42ZM162.085 166.554L155.785 175.947C154.474 177.911 155.039 180.484 157.003 181.794L171.105 191.151C169.191 191.277 167.332 191.841 165.67 192.798C164.008 193.755 162.588 195.081 161.518 196.672L157.61 202.549L147.658 195.939C147.195 195.63 146.676 195.416 146.13 195.31C145.584 195.204 145.023 195.208 144.478 195.322C143.934 195.435 143.418 195.656 142.959 195.971C142.501 196.286 142.111 196.689 141.81 197.157L135.51 206.55C134.199 208.514 134.764 211.087 136.728 212.398L146.681 219.008L112.431 270.568C110.618 273.317 109.967 276.671 110.619 279.899C111.272 283.126 113.175 285.964 115.914 287.792C121.592 291.597 129.332 289.987 133.137 284.309L167.396 232.746L233.389 276.513C237.957 279.515 244.081 278.316 247.083 273.748C250.084 269.18 248.886 263.056 244.318 260.054L178.325 216.288L182.223 210.404C183.291 208.807 183.97 206.98 184.204 205.073C184.438 203.165 184.222 201.229 183.572 199.42L253.663 245.91C258.231 248.911 264.356 247.713 267.357 243.145C270.359 238.577 269.161 232.452 264.592 229.451L167.932 165.336C166.986 164.755 165.853 164.557 164.766 164.784C163.679 165.01 162.72 165.643 162.085 166.554Z" fill="#2543A5"/>
<path d="M221.208 45.9947L226.047 61.7863C228.185 68.7575 227.412 81.3607 226.368 90.4108C225.695 97.0116 223.404 103.301 219.747 108.851L193.26 148.834L169.119 185.231L151.785 211.381C144.24 222.768 141.527 236.684 144.242 250.07C146.957 263.456 154.877 275.216 166.261 282.764C189.999 298.449 221.958 292.026 237.643 268.288L279.118 205.74C284.158 198.13 287.085 189.317 287.599 180.204C288.112 171.09 286.194 162.004 282.04 153.876C277.887 145.748 271.647 138.87 263.961 133.946C256.275 129.023 247.418 126.231 238.298 125.857L240.539 122.57C244.217 117.104 249.113 112.506 254.824 109.331C262.679 104.975 273.849 99.4118 281.082 98.6555L297.93 96.8979C304.631 96.1866 306.848 87.4717 301.169 83.6664L232.068 37.7941C226.433 34.1588 219.199 39.5336 221.208 45.9947ZM250.923 155.15C263.134 163.267 266.55 179.874 258.433 192.085L216.958 254.632C208.84 266.843 192.234 270.26 180.023 262.142C167.812 254.024 164.396 237.418 172.513 225.207L189.72 199.27L213.988 162.66C215.919 159.74 218.407 157.23 221.309 155.273C224.21 153.315 227.469 151.949 230.9 151.251C234.33 150.554 237.864 150.539 241.299 151.208C244.735 151.877 248.005 153.216 250.923 155.15Z" fill="#9AAFF3"/>
<path d="M176.425 128.305L166.68 143.013C165.744 144.445 165.411 146.189 165.753 147.865C166.095 149.541 167.085 151.015 168.508 151.965C171.454 153.931 175.494 153.083 177.46 150.137L187.205 135.429C189.171 132.483 188.323 128.443 185.377 126.477C184.671 126.002 183.878 125.672 183.044 125.507C182.21 125.342 181.351 125.344 180.518 125.514C179.684 125.684 178.893 126.019 178.191 126.498C177.488 126.977 176.888 127.591 176.425 128.305ZM146.471 173.518L156.216 158.81C157.166 157.388 158.64 156.398 160.316 156.055C161.992 155.713 163.736 156.046 165.168 156.982C168.114 158.948 168.962 162.988 166.996 165.934L157.251 180.642C156.301 182.065 154.827 183.055 153.151 183.397C151.475 183.739 149.731 183.406 148.299 182.47C146.877 181.52 145.887 180.046 145.544 178.37C145.202 176.694 145.535 174.95 146.471 173.518ZM126.177 204.045L135.922 189.337C136.872 187.914 138.346 186.924 140.022 186.582C141.698 186.24 143.442 186.573 144.874 187.509C147.82 189.475 148.668 193.515 146.702 196.461L136.957 211.169C136.007 212.591 134.533 213.581 132.857 213.924C131.181 214.266 129.437 213.933 128.005 212.997C126.583 212.047 125.593 210.573 125.25 208.897C124.908 207.221 125.241 205.477 126.177 204.045ZM103.728 285.108C98.8394 281.916 97.5111 275.282 100.788 270.372C104.065 265.462 110.614 264.155 115.524 267.432L134.929 280.327C139.817 283.519 141.145 290.153 137.868 295.063C134.677 299.952 128.042 301.28 123.132 298.003L103.728 285.108Z" fill="#D3D3D3"/>
<path d="M250.907 155.146L264.647 134.439C256.82 129.226 247.701 126.284 238.303 125.939L213.972 162.656C215.903 159.737 218.391 157.226 221.292 155.269C224.194 153.311 227.453 151.945 230.883 151.248C234.313 150.55 237.847 150.535 241.283 151.204C244.719 151.873 247.989 153.213 250.907 155.146Z" fill="#2543A5"/>
</g>
<path d="M57.4121 310.639L384.051 310.143L330.205 403.406H109.944L57.4121 310.639Z" fill="#91A9F7"/>
<path d="M128.676 340.626C131.216 340.626 133.437 341.196 135.336 342.335C137.236 343.475 138.685 345.019 139.682 346.966C140.703 348.913 141.213 351.074 141.213 353.449C141.213 355.823 140.703 357.984 139.682 359.931C138.685 361.878 137.236 363.422 135.336 364.562C133.437 365.701 131.216 366.271 128.676 366.271C126.135 366.271 123.915 365.701 122.015 364.562C120.115 363.422 118.655 361.878 117.634 359.931C116.636 357.984 116.138 355.823 116.138 353.449C116.138 351.074 116.636 348.913 117.634 346.966C118.655 345.019 120.115 343.475 122.015 342.335C123.915 341.196 126.135 340.626 128.676 340.626ZM128.676 361.997C130.243 361.997 131.608 361.617 132.772 360.857C133.935 360.097 134.826 359.076 135.443 357.794C136.061 356.488 136.369 355.039 136.369 353.449C136.369 351.858 136.061 350.421 135.443 349.139C134.826 347.833 133.935 346.8 132.772 346.04C131.608 345.28 130.243 344.9 128.676 344.9C127.108 344.9 125.743 345.28 124.579 346.04C123.416 346.8 122.525 347.833 121.908 349.139C121.291 350.421 120.982 351.858 120.982 353.449C120.982 355.039 121.291 356.488 121.908 357.794C122.525 359.076 123.416 360.097 124.579 360.857C125.743 361.617 127.108 361.997 128.676 361.997ZM148.264 351.205C148.359 351.228 148.442 351.205 148.514 351.133C148.585 351.038 148.644 350.955 148.692 350.884C148.692 350.86 148.692 350.848 148.692 350.848C149.119 349.875 149.558 349.115 150.01 348.569C150.461 348.023 151.114 347.607 151.969 347.322C152.824 347.037 153.987 346.895 155.459 346.895V351.525C153.702 351.406 152.325 351.549 151.328 351.953C150.354 352.332 149.653 352.997 149.226 353.947C148.822 354.897 148.62 356.191 148.62 357.83V365.986H144.061V347.18H148.62V348.213C148.62 348.949 148.442 349.673 148.086 350.385C148.086 350.409 148.074 350.421 148.051 350.421C148.051 350.421 148.051 350.433 148.051 350.457C147.979 350.67 147.956 350.848 147.979 350.991C148.003 351.11 148.098 351.181 148.264 351.205ZM144.204 361.997H148.478V365.986H144.204V361.997ZM144.204 347.18H146.483V351.169H144.204V347.18ZM156.035 356.583C156.035 354.731 156.415 353.069 157.175 351.596C157.958 350.124 159.075 348.972 160.523 348.141C161.972 347.31 163.646 346.895 165.545 346.895C167.231 346.895 168.715 347.239 169.998 347.928C171.28 348.616 172.277 349.53 172.99 350.67C173.726 351.786 174.153 352.997 174.272 354.303H169.784C169.641 353.354 169.202 352.57 168.466 351.953C167.73 351.335 166.756 351.026 165.545 351.026C164.524 351.026 163.634 351.264 162.874 351.739C162.138 352.19 161.568 352.843 161.164 353.698C160.784 354.529 160.594 355.491 160.594 356.583C160.594 357.675 160.784 358.649 161.164 359.504C161.568 360.335 162.138 360.988 162.874 361.463C163.634 361.914 164.524 362.139 165.545 362.139C166.756 362.139 167.73 361.831 168.466 361.213C169.202 360.596 169.641 359.812 169.784 358.863H174.272C174.153 360.169 173.726 361.392 172.99 362.531C172.277 363.647 171.28 364.55 169.998 365.238C168.739 365.927 167.255 366.271 165.545 366.271C163.669 366.271 162.007 365.856 160.559 365.025C159.134 364.194 158.018 363.042 157.21 361.57C156.427 360.097 156.035 358.435 156.035 356.583ZM187.449 346.895C189.539 346.895 191.189 347.571 192.4 348.925C193.611 350.278 194.216 352.261 194.216 354.873V365.986H189.657V356.44C189.657 355.039 189.527 353.947 189.265 353.164C189.028 352.38 188.66 351.834 188.161 351.525C187.663 351.193 186.998 351.026 186.167 351.026C185.288 351.026 184.457 351.335 183.673 351.953C182.913 352.57 182.296 353.437 181.821 354.553C181.346 355.669 181.109 356.927 181.109 358.328V365.986H176.55V340.341H181.109V348.355C181.109 348.901 181.061 349.364 180.966 349.744C180.871 350.124 180.729 350.516 180.539 350.92C180.539 350.943 180.527 350.967 180.503 350.991C180.503 350.991 180.503 351.003 180.503 351.026C180.408 351.24 180.361 351.418 180.361 351.561C180.361 351.703 180.456 351.798 180.646 351.846C180.764 351.869 180.859 351.846 180.931 351.774C181.002 351.703 181.073 351.62 181.144 351.525C181.144 351.501 181.144 351.489 181.144 351.489C181.168 351.466 181.18 351.442 181.18 351.418C181.512 350.706 181.964 350.005 182.533 349.317C183.103 348.628 183.804 348.058 184.635 347.607C185.49 347.132 186.428 346.895 187.449 346.895ZM213.23 354.588L214.619 357.723H200.906V354.588H213.23ZM196.489 356.583C196.489 354.636 196.869 352.938 197.629 351.489C198.388 350.017 199.469 348.889 200.87 348.106C202.295 347.298 203.957 346.895 205.857 346.895C207.4 346.895 208.837 347.227 210.166 347.892C211.52 348.533 212.612 349.566 213.443 350.991C214.298 352.392 214.726 354.173 214.726 356.334C214.726 356.714 214.69 357.177 214.619 357.723L210.166 354.588C210.071 353.401 209.668 352.439 208.955 351.703C208.243 350.967 207.258 350.599 205.999 350.599C204.123 350.599 202.805 351.181 202.045 352.344C201.285 353.508 200.906 355.016 200.906 356.868C200.906 357.984 201.107 358.946 201.511 359.753C201.915 360.56 202.497 361.19 203.256 361.641C204.016 362.068 204.919 362.282 205.963 362.282C206.984 362.282 207.804 362.033 208.421 361.534C209.039 361.035 209.49 360.335 209.775 359.432H214.405C214.12 360.786 213.621 361.973 212.909 362.994C212.22 364.015 211.282 364.823 210.095 365.416C208.932 365.986 207.543 366.271 205.928 366.271C203.957 366.271 202.259 365.856 200.834 365.025C199.41 364.194 198.329 363.054 197.593 361.605C196.857 360.133 196.489 358.459 196.489 356.583ZM220.908 359.646C220.932 360.169 221.062 360.667 221.3 361.142C221.561 361.593 221.988 361.973 222.582 362.282C223.199 362.567 224.031 362.709 225.075 362.709C226.001 362.709 226.749 362.614 227.319 362.424C227.913 362.234 228.329 361.973 228.566 361.641C228.827 361.308 228.958 360.917 228.958 360.465C228.958 360.014 228.756 359.67 228.352 359.432C227.972 359.195 227.438 359.017 226.749 358.898C226.085 358.756 225.016 358.601 223.544 358.435C223.544 358.435 223.532 358.435 223.508 358.435C220.944 358.126 219.21 357.438 218.308 356.369C217.429 355.277 216.99 354.03 216.99 352.629C216.99 351.584 217.299 350.635 217.916 349.78C218.533 348.901 219.448 348.201 220.659 347.678C221.87 347.156 223.33 346.895 225.04 346.895C227.438 346.895 229.326 347.465 230.703 348.604C232.08 349.72 232.828 351.169 232.947 352.95H228.459C228.388 352.237 228.079 351.644 227.533 351.169C227.011 350.694 226.144 350.457 224.933 350.457C223.722 350.457 222.855 350.635 222.333 350.991C221.81 351.323 221.549 351.786 221.549 352.38C221.549 352.736 221.632 353.033 221.798 353.27C221.988 353.508 222.38 353.722 222.974 353.912C223.568 354.102 224.446 354.256 225.61 354.375C228.103 354.636 230.038 355.218 231.416 356.12C232.817 356.999 233.517 358.328 233.517 360.109C233.517 361.415 233.185 362.531 232.52 363.457C231.855 364.36 230.881 365.06 229.599 365.559C228.317 366.034 226.761 366.271 224.933 366.271C222.273 366.271 220.208 365.69 218.735 364.526C217.287 363.339 216.515 361.712 216.42 359.646H220.908ZM234.39 347.18H247.498V351.169H234.39V347.18ZM242.369 359.753C242.369 360.513 242.392 361.035 242.44 361.32C242.511 361.605 242.665 361.795 242.903 361.89C243.164 361.961 243.639 361.997 244.328 361.997H247.498V365.986H243.366C242.06 365.986 241.003 365.82 240.196 365.488C239.389 365.131 238.783 364.538 238.379 363.707C237.999 362.876 237.809 361.712 237.809 360.216V342.05H242.369V359.753ZM254.842 351.205C254.937 351.228 255.021 351.205 255.092 351.133C255.163 351.038 255.222 350.955 255.27 350.884C255.27 350.86 255.27 350.848 255.27 350.848C255.697 349.875 256.137 349.115 256.588 348.569C257.039 348.023 257.692 347.607 258.547 347.322C259.402 347.037 260.565 346.895 262.037 346.895V351.525C260.28 351.406 258.903 351.549 257.906 351.953C256.932 352.332 256.232 352.997 255.804 353.947C255.4 354.897 255.199 356.191 255.199 357.83V365.986H250.639V347.18H255.199V348.213C255.199 348.949 255.021 349.673 254.664 350.385C254.664 350.409 254.652 350.421 254.629 350.421C254.629 350.421 254.629 350.433 254.629 350.457C254.557 350.67 254.534 350.848 254.557 350.991C254.581 351.11 254.676 351.181 254.842 351.205ZM250.782 361.997H255.056V365.986H250.782V361.997ZM250.782 347.18H253.061V351.169H250.782V347.18ZM276.034 356.298C275.559 356.82 274.93 357.188 274.146 357.402C273.386 357.592 272.187 357.77 270.549 357.936C269.528 358.055 268.756 358.328 268.233 358.756C267.735 359.159 267.485 359.765 267.485 360.572C267.485 361.356 267.818 361.973 268.483 362.424C269.171 362.852 270.038 362.994 271.083 362.852C271.985 362.733 272.793 362.448 273.505 361.997C274.241 361.546 274.847 360.857 275.322 359.931C275.796 358.981 276.034 357.77 276.034 356.298ZM262.926 360.822C262.926 358.874 263.544 357.438 264.778 356.512C266.037 355.562 267.699 355.028 269.765 354.909C270.074 354.885 270.382 354.873 270.691 354.873C271 354.873 271.297 354.861 271.582 354.838C272.674 354.814 273.505 354.778 274.075 354.731C274.669 354.66 275.143 354.517 275.5 354.303C275.856 354.09 276.034 353.757 276.034 353.306C276.01 352.499 275.737 351.846 275.215 351.347C274.692 350.848 273.707 350.599 272.258 350.599C270.786 350.599 269.741 350.86 269.124 351.383C268.507 351.881 268.127 352.57 267.984 353.449H263.496C263.71 351.929 264.244 350.682 265.099 349.709C265.954 348.735 267.011 348.023 268.269 347.571C269.551 347.12 270.929 346.895 272.401 346.895C274.016 346.895 275.417 347.132 276.604 347.607C277.815 348.082 278.777 348.961 279.489 350.243C280.225 351.501 280.593 353.282 280.593 355.586V365.986H276.034V364.668C276.034 364.051 276.141 363.517 276.355 363.066C276.402 362.994 276.438 362.923 276.461 362.852C276.485 362.757 276.521 362.674 276.568 362.603L276.639 362.46C276.711 362.294 276.734 362.151 276.711 362.033C276.711 361.914 276.651 361.831 276.533 361.783C276.39 361.736 276.271 361.748 276.176 361.819C276.105 361.89 276.046 361.985 275.998 362.104C275.998 362.128 275.986 362.139 275.963 362.139C275.963 362.139 275.963 362.151 275.963 362.175C275.417 363.505 274.609 364.526 273.541 365.238C272.472 365.927 271.119 366.271 269.48 366.271C268.317 366.271 267.224 366.034 266.203 365.559C265.206 365.084 264.41 364.431 263.817 363.6C263.223 362.769 262.926 361.843 262.926 360.822ZM282.009 347.18H295.117V351.169H282.009V347.18ZM289.988 359.753C289.988 360.513 290.012 361.035 290.059 361.32C290.13 361.605 290.285 361.795 290.522 361.89C290.783 361.961 291.258 361.997 291.947 361.997H295.117V365.986H290.985C289.679 365.986 288.623 365.82 287.815 365.488C287.008 365.131 286.402 364.538 285.999 363.707C285.619 362.876 285.429 361.712 285.429 360.216V342.05H289.988V359.753ZM305.931 346.895C307.831 346.895 309.493 347.322 310.918 348.177C312.342 349.032 313.435 350.195 314.194 351.668C314.954 353.14 315.334 354.778 315.334 356.583C315.334 358.388 314.954 360.026 314.194 361.498C313.435 362.971 312.342 364.134 310.918 364.989C309.493 365.844 307.831 366.271 305.931 366.271C304.031 366.271 302.369 365.844 300.944 364.989C299.52 364.134 298.427 362.971 297.667 361.498C296.907 360.026 296.528 358.388 296.528 356.583C296.528 354.778 296.907 353.14 297.667 351.668C298.427 350.195 299.52 349.032 300.944 348.177C302.369 347.322 304.031 346.895 305.931 346.895ZM305.931 362.139C306.928 362.139 307.795 361.902 308.531 361.427C309.267 360.928 309.825 360.264 310.205 359.432C310.585 358.578 310.775 357.628 310.775 356.583C310.775 355.538 310.585 354.6 310.205 353.769C309.825 352.914 309.267 352.249 308.531 351.774C307.795 351.276 306.928 351.026 305.931 351.026C304.934 351.026 304.067 351.276 303.331 351.774C302.595 352.249 302.037 352.914 301.657 353.769C301.277 354.6 301.087 355.538 301.087 356.583C301.087 357.628 301.277 358.578 301.657 359.432C302.037 360.264 302.595 360.928 303.331 361.427C304.067 361.902 304.934 362.139 305.931 362.139ZM321.836 351.205C321.931 351.228 322.014 351.205 322.086 351.133C322.157 351.038 322.216 350.955 322.264 350.884C322.264 350.86 322.264 350.848 322.264 350.848C322.691 349.875 323.131 349.115 323.582 348.569C324.033 348.023 324.686 347.607 325.541 347.322C326.396 347.037 327.559 346.895 329.031 346.895V351.525C327.274 351.406 325.897 351.549 324.9 351.953C323.926 352.332 323.226 352.997 322.798 353.947C322.394 354.897 322.193 356.191 322.193 357.83V365.986H317.633V347.18H322.193V348.213C322.193 348.949 322.014 349.673 321.658 350.385C321.658 350.409 321.646 350.421 321.623 350.421C321.623 350.421 321.623 350.433 321.623 350.457C321.551 350.67 321.528 350.848 321.551 350.991C321.575 351.11 321.67 351.181 321.836 351.205ZM317.776 361.997H322.05V365.986H317.776V361.997ZM317.776 347.18H320.055V351.169H317.776V347.18Z" fill="#2F2F30"/>
<defs>
<linearGradient id="paint0_linear_2060_1726" x1="133.257" y1="60.0351" x2="264.106" y2="300.088" gradientUnits="userSpaceOnUse">
<stop stop-color="#91A9F7" stop-opacity="0.5"/>
<stop offset="1" stop-color="#91A9F7" stop-opacity="0.1"/>
</linearGradient>
<clipPath id="clip0_2060_1726">
<rect width="280.807" height="280.807" fill="white" transform="translate(27.8022 69.3369) rotate(-14.2952)"/>
</clipPath>
</defs>
</svg>
