<svg width="48" height="48" viewBox="0 0 48 48" fill="none" xmlns="http://www.w3.org/2000/svg">
<g clip-path="url(#clip0_5185_4188)">
<mask id="mask0_5185_4188" style="mask-type:luminance" maskUnits="userSpaceOnUse" x="0" y="0" width="48" height="48">
<path d="M47.9628 0.0361328H0.0585938V47.9403H47.9628V0.0361328Z" fill="white"/>
</mask>
<g mask="url(#mask0_5185_4188)">
<path fill-rule="evenodd" clip-rule="evenodd" d="M27.3564 20.7288C29.1306 22.5204 29.1306 25.4219 27.3564 27.21C25.5856 29.0016 22.7052 29.0016 20.9309 27.21C19.1532 25.4219 19.1532 22.5204 20.9309 20.7288C22.7017 18.9407 25.5822 18.9407 27.3564 20.7288Z" fill="#232323"/>
<path fill-rule="evenodd" clip-rule="evenodd" d="M33.3079 14.5189C28.2531 9.29709 20.0499 9.29709 14.9916 14.5189C9.92988 19.7407 9.92988 28.2048 14.9916 33.4266C20.0534 38.6484 28.2531 38.6484 33.3079 33.4266C38.3697 28.2048 38.3697 19.7407 33.3079 14.5189ZM31.725 31.4959C28.7889 34.4494 23.0174 33.4788 18.8357 29.325C14.6542 25.1713 13.6453 19.4067 16.578 16.4462C19.5176 13.4926 25.2857 14.4632 29.4672 18.617C33.6489 22.7708 34.6647 28.5353 31.725 31.4959Z" fill="#232323"/>
<path d="M27.3564 20.7288C29.1306 22.5204 29.1306 25.4219 27.3564 27.21C25.5856 29.0016 22.7052 29.0016 20.9309 27.21C19.1532 25.4219 19.1532 22.5204 20.9309 20.7288C22.7017 18.9407 25.5822 18.9407 27.3564 20.7288Z" fill="#232323"/>
<path d="M33.3079 14.5189C28.2531 9.29709 20.0499 9.29709 14.9916 14.5189C9.92988 19.7407 9.92988 28.2048 14.9916 33.4266C20.0534 38.6484 28.2531 38.6484 33.3079 33.4266C38.3697 28.2048 38.3697 19.7407 33.3079 14.5189ZM31.725 31.4959C28.7889 34.4494 23.0174 33.4788 18.8357 29.325C14.6542 25.1713 13.6453 19.4067 16.578 16.4462C19.5176 13.4926 25.2857 14.4632 29.4672 18.617C33.6489 22.7708 34.6647 28.5353 31.725 31.4959Z" fill="#232323"/>
<path fill-rule="evenodd" clip-rule="evenodd" d="M27.3564 20.7288C29.1306 22.5204 29.1306 25.4219 27.3564 27.21C25.5856 29.0016 22.7052 29.0016 20.9309 27.21C19.1532 25.4219 19.1532 22.5204 20.9309 20.7288C22.7017 18.9407 25.5822 18.9407 27.3564 20.7288Z" fill="#232323"/>
<path fill-rule="evenodd" clip-rule="evenodd" d="M33.3079 14.5189C28.2531 9.29709 20.0499 9.29709 14.9916 14.5189C9.92988 19.7407 9.92988 28.2048 14.9916 33.4266C20.0534 38.6484 28.2531 38.6484 33.3079 33.4266C38.3697 28.2048 38.3697 19.7407 33.3079 14.5189ZM31.725 31.4959C28.7889 34.4494 23.0174 33.4788 18.8357 29.325C14.6542 25.1713 13.6453 19.4067 16.578 16.4462C19.5176 13.4926 25.2857 14.4632 29.4672 18.617C33.6489 22.7708 34.6647 28.5353 31.725 31.4959Z" fill="#232323"/>
<path d="M27.3564 27.21C25.5856 29.0016 22.7052 29.0016 20.9309 27.21C19.1532 25.4219 19.1532 22.5204 20.9309 20.7288C22.7017 18.9407 25.5822 18.9407 27.3564 20.7288C29.1306 22.5204 29.1306 25.4219 27.3564 27.21Z" fill="#232323"/>
<path fill-rule="evenodd" clip-rule="evenodd" d="M27.3564 27.21C25.5856 29.0016 22.7052 29.0016 20.9309 27.21C19.1532 25.4219 19.1532 22.5204 20.9309 20.7288C22.7017 18.9407 25.5822 18.9407 27.3564 20.7288C29.1306 22.5204 29.1306 25.4219 27.3564 27.21Z" fill="#232323"/>
<path d="M24.0107 0.0361328C10.7805 0.0361328 0.0585938 10.7581 0.0585938 23.9882C0.0585938 37.2184 10.7805 47.9403 24.0107 47.9403C37.2409 47.9403 47.9628 37.2184 47.9628 23.9882C47.9628 10.7581 37.2374 0.0361328 24.0107 0.0361328ZM36.1938 34.8633C29.0029 42.8125 17.787 44.378 11.1318 38.3665C10.2482 37.5697 9.4968 36.6792 8.86016 35.7156C5.57958 30.7268 5.61437 23.783 8.86016 17.6845C9.71598 16.0738 10.8014 14.5187 12.1025 13.0819C19.2898 5.1327 30.5057 3.56372 37.1609 9.5787C43.8125 15.5937 43.3776 26.9139 36.1938 34.8633Z" fill="#232323"/>
</g>
</g>
<defs>
<clipPath id="clip0_5185_4188">
<rect width="48" height="48" fill="white"/>
</clipPath>
</defs>
</svg>
