<svg width="1655" height="442" viewBox="0 0 1655 442" fill="none" xmlns="http://www.w3.org/2000/svg">
<g clip-path="url(#clip0_2047_1678)">
<path d="M1014.12 162.388C1014.12 243.279 942.723 317.033 864.265 317.033C803.988 317.033 760.21 271.488 760.21 208.611C760.21 127.721 831.6 53.9673 910.063 53.9673C970.337 53.9673 1014.12 99.5109 1014.12 162.388ZM980.44 185.159C980.44 131.459 939.02 87.9551 887.838 87.9551C836.653 87.9551 793.885 132.479 793.885 185.839C793.885 239.2 835.305 283.045 886.491 283.045C937.676 283.045 980.44 238.521 980.44 185.159ZM953.503 208.611C953.503 234.782 935.993 252.456 909.39 252.456C866.287 252.456 820.824 206.233 820.824 162.388C820.824 136.218 838.335 118.544 864.939 118.544C908.043 118.544 953.503 164.767 953.503 208.611ZM698.921 433.609H788.497V323.83C812.405 349.661 848.101 364.276 886.828 364.276C984.153 364.276 1053.52 290.522 1053.52 186.859C1053.52 83.1968 984.153 9.44336 886.828 9.44336C848.101 9.44336 812.405 24.0581 788.497 49.549V16.9207L698.921 16.9207V433.609ZM887.163 218.469C869.316 218.469 854.499 203.513 854.499 185.499C854.499 167.487 868.98 152.532 887.163 152.532C905.349 152.532 919.827 167.487 919.827 185.499C919.827 203.513 905.686 218.469 887.163 218.469Z" fill="white"/>
<path d="M1463.68 15.7374L1553.26 15.7374V60.6011C1572.1 26.2735 1612.52 5.88091 1654.94 9.95945V92.8892C1596.02 84.0528 1553.26 116.341 1553.26 169.701V355.615H1463.68V15.7374ZM332.535 224.422V15.7374L422.112 15.7374V211.846C422.112 264.187 442.652 289.338 481.716 289.338C523.81 289.338 555.464 254.67 555.464 208.447V15.7374L645.038 15.7374V355.615H555.464V308.032C535.595 342.359 497.206 363.092 458.143 363.092C377.997 363.092 332.535 312.791 332.535 224.422Z" fill="white"/>
<path d="M243.439 174.964C226.601 165.277 205.892 157.46 181.174 151.512C163.326 146.55 149.149 141.961 138.609 137.748C128.068 133.533 120.626 129.081 116.181 124.356C111.736 119.632 109.514 114.296 109.514 108.347C109.514 99.4087 113.319 92.3394 120.93 87.1394C128.54 81.9393 139.417 79.3222 153.594 79.3222C166.189 79.3222 180.635 82.0412 196.934 87.5133C213.198 92.9849 227.914 100.667 241.048 110.591L285.195 49.5828C267.853 36.6676 247.783 26.7431 224.919 19.8096C202.085 12.9441 178.885 9.44336 155.244 9.44336C128.438 9.44336 104.934 13.7938 84.7288 22.4607C64.5237 31.1615 48.4944 43.0573 36.6407 58.1477C24.8208 73.3064 18.9279 90.7759 18.9279 110.591C18.9279 130.406 23.6422 148.079 33.1051 161.912C42.5677 175.814 56.2059 187.233 74.0874 196.172C91.9352 205.111 113.487 212.792 138.71 219.251C155.48 224.211 168.747 228.562 178.48 232.266C188.212 236.006 195.015 239.983 198.954 244.163C202.894 248.377 204.846 253.713 204.846 260.171C204.846 270.606 200.133 278.898 190.67 285.118C181.207 291.338 168.613 294.431 152.853 294.431C135.005 294.431 116.754 290.692 98.098 283.249C79.4753 275.804 61.695 265.371 44.925 251.98L0.0361328 314.449C23.676 331.341 48.0903 343.814 73.313 352.006C98.5351 360.197 125.038 364.276 152.853 364.276C198.011 364.276 233.101 354.487 258.019 334.911C282.973 315.299 295.433 289.672 295.433 257.894C295.433 239.541 290.988 223.566 282.031 209.903C273.073 196.24 260.243 184.583 243.405 174.896V174.998L243.439 174.964Z" fill="white"/>
<path d="M1401.17 96.4859C1386.15 69.7036 1365.92 48.4953 1340.36 32.8609C1314.83 17.2606 1285.8 9.44336 1253.38 9.44336C1220.94 9.44336 1192.42 17.2606 1166.39 32.8609C1140.36 48.4953 1119.71 69.8055 1104.46 96.8598C1089.21 123.88 1081.63 154.027 1081.63 187.233C1081.63 220.438 1089.48 250.484 1105.24 277.233C1120.97 304.049 1142.58 325.224 1170.13 340.858C1197.65 356.493 1228.62 364.276 1263 364.276C1289.58 364.276 1314.36 359.688 1337.42 350.511C1360.49 341.334 1381.17 327.807 1399.35 309.963L1349.21 254.902C1336.42 267.308 1322.78 276.383 1308.29 282.093C1293.78 287.804 1277.95 290.658 1260.75 290.658C1242.06 290.658 1225.49 286.205 1210.98 277.267C1196.47 268.328 1184.95 256.16 1176.32 240.833C1172.42 233.898 1169.52 226.421 1167.37 218.536L1420.67 218.536C1421.65 214.084 1422.39 208.985 1422.89 203.275C1423.37 197.566 1423.63 191.992 1423.63 186.519C1423.63 153.313 1416.12 123.268 1401.17 96.52H1401.21L1401.17 96.4859ZM1167.47 153.789C1169.32 146.584 1171.78 139.752 1174.88 133.363C1182.49 117.729 1193.19 105.356 1206.94 96.1802C1220.71 87.0034 1235.93 82.4151 1252.64 82.4151C1270.35 82.4151 1285.9 87.0034 1299.44 96.1802C1312.97 105.356 1323.62 117.524 1331.5 132.615C1334.97 139.242 1337.63 146.38 1339.58 153.789L1167.47 153.789Z" fill="white"/>
</g>
<defs>
<clipPath id="clip0_2047_1678">
<rect width="1655" height="442" fill="white"/>
</clipPath>
</defs>
</svg>
