<svg width="181" height="48" viewBox="0 0 181 48" fill="none" xmlns="http://www.w3.org/2000/svg">
<path d="M110.909 17.6338C110.909 26.4183 103.101 34.4278 94.5204 34.4278C87.9282 34.4278 83.1404 29.4818 83.1404 22.6535C83.1404 13.869 90.948 5.85959 99.5291 5.85959C106.121 5.85959 110.909 10.8055 110.909 17.6338ZM107.226 20.1067C107.226 14.275 102.696 9.55057 97.0985 9.55057C91.5006 9.55057 86.8232 14.3857 86.8232 20.1805C86.8232 25.9754 91.3532 30.7368 96.9512 30.7368C102.549 30.7368 107.226 25.9016 107.226 20.1067ZM104.28 22.6535C104.28 25.4956 102.365 27.4149 99.4555 27.4149C94.7415 27.4149 89.7695 22.3952 89.7695 17.6338C89.7695 14.7918 91.6846 12.8724 94.5941 12.8724C99.3082 12.8724 104.28 17.8921 104.28 22.6535ZM76.4375 47.0877H86.234V35.1659C88.8487 37.9711 92.7526 39.5583 96.988 39.5583C107.632 39.5583 115.218 31.5488 115.218 20.2913C115.218 9.03383 107.632 1.02441 96.988 1.02441C92.7526 1.02441 88.8487 2.61153 86.234 5.37977V1.83643H76.4375V47.0877ZM97.0247 23.724C95.0728 23.724 93.4523 22.0999 93.4523 20.1436C93.4523 18.1875 95.0361 16.5634 97.0247 16.5634C99.0136 16.5634 100.597 18.1875 100.597 20.1436C100.597 22.0999 99.0504 23.724 97.0247 23.724Z" fill="#232323"/>
<path d="M160.075 1.70793H169.872V6.58001C171.933 2.85212 176.354 0.637542 180.993 1.08046V10.0864C174.549 9.1268 169.872 12.6332 169.872 18.428V38.6177H160.075V1.70793ZM36.3672 24.3705V1.70793H46.1638V23.0048C46.1638 28.6889 48.4102 31.4202 52.6825 31.4202C57.2861 31.4202 60.7479 27.6554 60.7479 22.6357V1.70793H70.5443V38.6177H60.7479V33.4503C58.575 37.1782 54.3765 39.4297 50.1044 39.4297C41.3392 39.4297 36.3672 33.9671 36.3672 24.3705Z" fill="#232323"/>
<path d="M26.6238 18.9995C24.7823 17.9475 22.5174 17.0986 19.8142 16.4527C17.8622 15.9138 16.3117 15.4155 15.159 14.9579C14.0062 14.5002 13.1923 14.0167 12.7062 13.5036C12.22 12.9906 11.977 12.4111 11.977 11.7651C11.977 10.7944 12.3931 10.0267 13.2255 9.46199C14.0578 8.89727 15.2474 8.61306 16.7978 8.61306C18.1753 8.61306 19.7552 8.90834 21.5377 9.50259C23.3165 10.0968 24.9259 10.931 26.3623 12.0088L31.1905 5.38345C29.2939 3.98089 27.0989 2.90312 24.5983 2.15016C22.1011 1.40458 19.5638 1.02441 16.9783 1.02441C14.0467 1.02441 11.4761 1.49686 9.26637 2.43806C7.05662 3.38294 5.30357 4.67479 4.00719 6.31357C2.7145 7.95976 2.07001 9.85691 2.07001 12.0088C2.07001 14.1606 2.5856 16.0799 3.62051 17.5821C4.65539 19.0918 6.14695 20.3319 8.10257 21.3026C10.0545 22.2734 12.4115 23.1075 15.17 23.8089C17.0041 24.3476 18.4551 24.8201 19.5195 25.2224C20.5839 25.6285 21.3279 26.0604 21.7587 26.5143C22.1896 26.972 22.4031 27.5514 22.4031 28.2527C22.4031 29.386 21.8876 30.2865 20.8527 30.9619C19.8178 31.6374 18.4404 31.9733 16.7168 31.9733C14.7649 31.9733 12.7688 31.5673 10.7285 30.759C8.69182 29.9505 6.74726 28.8175 4.9132 27.3632L0.00390625 34.1472C2.58929 35.9816 5.25938 37.3362 8.01787 38.2258C10.7763 39.1153 13.6748 39.5583 16.7168 39.5583C21.6555 39.5583 25.4932 38.4952 28.2184 36.3693C30.9475 34.2395 32.3102 31.4565 32.3102 28.0055C32.3102 26.0124 31.824 24.2776 30.8444 22.7938C29.8647 21.31 28.4616 20.0441 26.6201 18.9921V19.0032L26.6238 18.9995Z" fill="#232323"/>
<path d="M153.24 10.477C151.597 7.56851 149.384 5.26535 146.589 3.56749C143.797 1.87334 140.622 1.02441 137.076 1.02441C133.529 1.02441 130.41 1.87334 127.563 3.56749C124.716 5.26535 122.458 7.57958 120.79 10.5176C119.122 13.4519 118.293 16.7258 118.293 20.3319C118.293 23.9379 119.151 27.2008 120.875 30.1056C122.595 33.0178 124.959 35.3173 127.972 37.0151C130.981 38.7131 134.369 39.5583 138.129 39.5583C141.035 39.5583 143.745 39.06 146.268 38.0634C148.791 37.0668 151.052 35.5978 153.041 33.66L147.557 27.6806C146.158 29.0278 144.666 30.0133 143.082 30.6334C141.495 31.2536 139.764 31.5636 137.882 31.5636C135.838 31.5636 134.026 31.08 132.439 30.1093C130.852 29.1386 129.592 27.8172 128.649 26.1527C128.222 25.3996 127.905 24.5876 127.67 23.7313H155.372C155.479 23.2478 155.56 22.6941 155.615 22.074C155.667 21.454 155.696 20.8487 155.696 20.2544C155.696 16.6483 154.875 13.3855 153.24 10.4807H153.244L153.24 10.477ZM127.681 16.7C127.883 15.9175 128.152 15.1756 128.491 14.4817C129.323 12.7839 130.494 11.4403 131.997 10.4438C133.503 9.44722 135.168 8.94894 136.995 8.94894C138.932 8.94894 140.633 9.44722 142.114 10.4438C143.594 11.4403 144.758 12.7617 145.62 14.4005C145.999 15.1202 146.29 15.8954 146.504 16.7H127.681Z" fill="#232323"/>
</svg>
